<svg xmlns="http://www.w3.org/2000/svg" xmlns:xlink="http://www.w3.org/1999/xlink" id="Capa_1" x="0" y="0" enable-background="new 0 0 100 100" version="1.1" viewBox="0 0 100 100" xml:space="preserve"><g><path fill="#000100" d="M86.25,37.686l-24.27,0V13.416c0-3.054-2.476-5.53-5.53-5.53H43.549c-3.054,0-5.53,2.476-5.53,5.53 v24.269l-24.27,0c-3.054,0-5.53,2.476-5.53,5.53v12.903c0,3.054,2.476,5.53,5.53,5.53l24.27,0v24.269c0,3.054,2.476,5.53,5.53,5.53 h12.902c3.054,0,5.53-2.476,5.53-5.53V61.648l24.27,0c3.054,0,5.53-2.476,5.53-5.53V43.215 C91.78,40.161,89.305,37.686,86.25,37.686z"/></g></svg>