<svg xmlns="http://www.w3.org/2000/svg" xmlns:xlink="http://www.w3.org/1999/xlink" id="Capa_1" x="0" y="0" enable-background="new 0 0 100 100" version="1.1" viewBox="0 0 100 100" xml:space="preserve"><g><path fill="#1D1D1B" d="M89.233,21.263L78.737,10.767c-2.484-2.484-6.512-2.484-8.996,0L50,30.508L30.258,10.767 c-2.484-2.484-6.512-2.484-8.996,0L10.767,21.263c-2.484,2.484-2.484,6.512,0,8.996L30.509,50L10.767,69.741 c-2.484,2.484-2.484,6.512,0,8.996l10.496,10.495c2.484,2.484,6.512,2.484,8.996,0L50,69.491l19.742,19.741 c2.484,2.484,6.512,2.484,8.996,0l10.496-10.495c2.484-2.484,2.484-6.512,0-8.996L69.491,50l19.742-19.741 C91.717,27.774,91.717,23.747,89.233,21.263z"/></g></svg>