<svg xmlns="http://www.w3.org/2000/svg" xmlns:xlink="http://www.w3.org/1999/xlink" id="Capa_1" x="0" y="0" enable-background="new 0 0 100 100" version="1.1" viewBox="0 0 100 100" xml:space="preserve"><g><path fill="#000100" d="M61.5,89.25c1.657,0,3-1.343,3-3L63,81H37l-1.5,5.25c0,1.657,1.343,3,3,3H61.5z"/><path fill="#000100" d="M91.333,12H8.667c-1.657,0-3,1.343-3,3v60c0,1.657,1.343,3,3,3H37.78H62.22h29.114 c1.657,0,3-1.343,3-3V15C94.333,13.343,92.99,12,91.333,12z M88.25,63h-76.5V18h76.5V63z"/></g></svg>